<svg width="30" height="22" viewBox="0 0 30 22" fill="none" xmlns="http://www.w3.org/2000/svg">
<path fill-rule="evenodd" clip-rule="evenodd" d="M0 1C0 0.447715 0.433273 0 0.967742 0H29.0323C29.5667 0 30 0.447715 30 1C30 1.55228 29.5667 2 29.0323 2H0.967742C0.433273 2 0 1.55228 0 1ZM0 11C0 10.4477 0.433273 10 0.967742 10H19.3548C19.8893 10 20.3226 10.4477 20.3226 11C20.3226 11.5523 19.8893 12 19.3548 12H0.967742C0.433273 12 0 11.5523 0 11ZM0 21C0 20.4477 0.433273 20 0.967742 20H29.0323C29.5667 20 30 20.4477 30 21C30 21.5523 29.5667 22 29.0323 22H0.967742C0.433273 22 0 21.5523 0 21Z" fill="white"/>
</svg>
