<svg width="100" height="100" viewBox="0 0 100 100" fill="none" xmlns="http://www.w3.org/2000/svg">
<path opacity="0.9" fill-rule="evenodd" clip-rule="evenodd" d="M50 100C77.6142 100 100 77.6142 100 50C100 22.3858 77.6142 0 50 0C22.3858 0 0 22.3858 0 50C0 77.6142 22.3858 100 50 100ZM41.5812 31.1295L66.8608 49.1863C67.4191 49.5851 67.4191 50.4149 66.8608 50.8137L41.5812 68.8705C40.9194 69.3433 40 68.8702 40 68.0568V31.9432C40 31.1298 40.9194 30.6567 41.5812 31.1295Z" fill="white"/>
<path d="M66.8608 50.8137C67.4191 50.4149 67.4191 49.5851 66.8608 49.1863L41.5812 31.1295C40.9194 30.6567 40 31.1298 40 31.9432V68.0568C40 68.8702 40.9194 69.3433 41.5812 68.8705L66.8608 50.8137Z" fill="white" fill-opacity="0.35"/>
</svg>
