<svg width="20" height="20" viewBox="0 0 20 20" fill="none" xmlns="http://www.w3.org/2000/svg">
<g clip-path="url(#clip0_1_37)">
<path fill-rule="evenodd" clip-rule="evenodd" d="M2.92969 2.92891C4.80312 1.05422 7.34844 0 10 0C12.6516 0 15.1969 1.05422 17.0703 2.92891C18.9453 4.80359 20 7.34891 20 10C20 12.6511 18.9453 15.1964 17.0703 17.0711C15.1969 18.9458 12.6516 20 10 20C7.34844 20 4.80312 18.9458 2.92969 17.0711C1.05469 15.1964 0 12.6511 0 10C0 7.34891 1.05469 4.80359 2.92969 2.92891ZM10.3578 7.38246C9.38595 7.78699 7.44223 8.62434 4.5266 9.89434C4.05316 10.0826 3.80469 10.2668 3.78281 10.4468C3.74434 10.7509 4.12516 10.8708 4.6426 11.0338C4.71358 11.0561 4.78713 11.0793 4.86252 11.1039C5.37346 11.2698 6.06092 11.464 6.41717 11.4717C6.74217 11.4787 7.10309 11.3451 7.50153 11.0711C10.2265 9.23246 11.6312 8.30309 11.7203 8.28309C11.7828 8.26903 11.8688 8.25121 11.9266 8.30324C11.986 8.35512 11.9797 8.45356 11.9734 8.47996C11.9366 8.64057 10.4463 10.0261 9.67085 10.7471C9.42704 10.9738 9.25389 11.1348 9.21876 11.1714C9.14027 11.2529 9.06026 11.33 8.98337 11.4042C8.50918 11.8613 8.15344 12.2042 9.00315 12.764C9.41515 13.0354 9.744 13.2594 10.0727 13.4833C10.4258 13.7238 10.7787 13.9642 11.2344 14.2631C11.3515 14.3399 11.4634 14.4196 11.5723 14.4973C11.9865 14.7925 12.3586 15.0578 12.8188 15.0155C13.0859 14.9909 13.3625 14.7397 13.5016 13.9903C13.8328 12.2192 14.4844 8.38199 14.6344 6.80074C14.6485 6.66231 14.6313 6.48496 14.6188 6.40715C14.6047 6.32934 14.5766 6.2184 14.4766 6.13637C14.3562 6.03903 14.1719 6.01856 14.0891 6.01996C13.7125 6.02668 13.1359 6.22731 10.3578 7.38246Z" fill="white"/>
</g>
<defs>
<clipPath id="clip0_1_37">
<rect width="20" height="20" fill="white"/>
</clipPath>
</defs>
</svg>
