<svg width="20" height="20" viewBox="0 0 20 20" fill="none" xmlns="http://www.w3.org/2000/svg">
<g clip-path="url(#clip0_1_33)">
<path fill-rule="evenodd" clip-rule="evenodd" d="M10.4167 20H9.58333C5.06667 20 2.8 20 1.4 18.6C0 17.2 0 14.9333 0 10.4333V9.58333C0 5.06667 0 2.8 1.39167 1.4C2.79167 0 5.05 0 9.58333 0H10.4167C14.9417 0 17.2083 0 18.6083 1.4C20 2.8 20 5.06667 20 9.56667V10.4167C20 14.9333 20 17.2 18.6083 18.6C17.2083 20 14.95 20 10.4167 20ZM3.375 6.08332C3.48334 11.2833 6.08334 14.4083 10.6417 14.4083H10.9V11.4333C11.704 11.5346 12.4603 11.8709 13.074 12.4001C13.6877 12.9293 14.1316 13.6279 14.35 14.4083H16.7167C16.4734 13.5098 16.0423 12.6732 15.4519 11.9535C14.8616 11.2338 14.1253 10.6475 13.2917 10.2333C14.0385 9.78 14.6837 9.17746 15.187 8.46338C15.6903 7.74931 16.0408 6.93906 16.2167 6.08332H14.0667C13.6 7.73332 12.2167 9.23332 10.9 9.37499V6.08332H8.75V11.85C7.41667 11.5167 5.73334 9.89999 5.65834 6.08332H3.375Z" fill="white"/>
</g>
<defs>
<clipPath id="clip0_1_33">
<rect width="20" height="20" fill="white"/>
</clipPath>
</defs>
</svg>
