<svg width="30" height="30" viewBox="0 0 30 30" fill="none" xmlns="http://www.w3.org/2000/svg">
<path fill-rule="evenodd" clip-rule="evenodd" d="M0.924708 28.666C0.414006 28.1553 0.400651 27.3407 0.894879 26.8464L26.8464 0.894934C27.3406 0.400708 28.1553 0.414062 28.666 0.924764C29.1767 1.43547 29.19 2.25012 28.6958 2.74435L2.7443 28.6958C2.25007 29.1901 1.43541 29.1767 0.924708 28.666Z" fill="white"/>
<path fill-rule="evenodd" clip-rule="evenodd" d="M29.0753 29.0763C29.586 28.5656 29.5993 27.7509 29.1051 27.2567L3.15363 1.30521C2.65941 0.810987 1.84475 0.824341 1.33405 1.33504C0.823343 1.84574 0.80999 2.6604 1.30422 3.15463L27.2557 29.1061C27.7499 29.6003 28.5646 29.587 29.0753 29.0763Z" fill="white"/>
</svg>
